<svg class="icon-defs" viewBox="0 0 14 14" version="1.1" xmlns="http://www.w3.org/2000/svg"><defs>
<g id="gl-path-pin"><path d="M4.822,8.739 C4.532,8.448 4.264,8.154 4.022,7.865 C3.967,7.796 3.880,7.758 3.795,7.763 C3.705,7.768 3.624,7.813 3.578,7.886 L0.045,13.209 C-0.026,13.320 -0.011,13.450 0.094,13.561 C0.147,13.609 0.238,13.658 0.287,13.640 C0.341,13.640 0.396,13.627 0.442,13.595 L5.754,10.038 C5.824,9.990 5.871,9.908 5.876,9.822 C5.882,9.732 5.842,9.647 5.774,9.590 C5.436,9.317 5.117,9.027 4.827,8.739 L4.822,8.739 Z" /><path d="M13.479,3.206 C13.253,2.614 12.814,1.974 12.242,1.400 C11.379,0.537 10.389,0.002 9.660,0.002 C9.370,0.002 9.127,0.091 8.958,0.258 C8.764,0.453 8.678,0.742 8.705,1.068 C8.696,1.257 5.680,3.660 5.396,3.649 C4.640,3.427 4.055,3.475 3.668,3.859 C2.858,4.668 3.553,6.611 5.262,8.322 C6.447,9.529 7.820,10.253 8.786,10.242 C9.171,10.242 9.495,10.125 9.716,9.903 C10.016,9.603 10.120,9.142 10.018,8.564 C10.020,8.550 10.021,8.536 10.021,8.523 C10.021,8.492 10.016,8.464 10.004,8.439 C9.987,8.234 12.349,4.947 12.561,4.939 C12.602,4.939 12.658,4.939 12.658,4.945 C12.953,4.945 13.190,4.857 13.362,4.685 C13.692,4.393 13.710,3.862 13.468,3.206 L13.479,3.206 Z" /></g>
<g id="gl-path-user"><path d="M6.968,7.380 C8.694,7.380 10.093,5.743 10.093,3.723 C10.093,0.921 8.694,0.065 6.968,0.065 C5.242,0.065 3.843,0.921 3.843,3.723 C3.843,5.743 5.242,7.380 6.968,7.380 Z" /><path d="M13.869,12.764 L12.292,9.212 C12.220,9.050 12.093,8.915 11.936,8.833 L9.489,7.559 C9.435,7.531 9.370,7.537 9.321,7.573 C8.629,8.097 7.815,8.373 6.968,8.373 C6.121,8.373 5.307,8.097 4.615,7.573 C4.566,7.537 4.501,7.531 4.447,7.559 L2.001,8.833 C1.843,8.915 1.716,9.050 1.644,9.212 L0.068,12.764 C-0.040,13.009 -0.018,13.289 0.127,13.513 C0.273,13.738 0.520,13.872 0.788,13.872 L13.148,13.872 C13.416,13.872 13.663,13.738 13.809,13.513 C13.955,13.289 13.977,13.008 13.869,12.764 Z" /></g>
<g id="gl-path-date"><path d="M1,2 L13,2 C13.552,2 14,2.447 14,3 L14,13 C14,13.552 13.552,14 13,14 L1,14 C0.447,14 6.763e-17,13.552 0,13 L0,3 C-6.763e-17,2.447 0.447,2 1,2 Z M2,5 L2,12 L12,12 L12,5 L2,5 Z" /><rect x="3" y="6" width="2" height="2" /><rect x="6" y="6" width="2" height="2" /><rect x="9" y="6" width="2" height="2" /><rect x="3" y="9" width="2" height="2" /><rect x="6" y="9" width="2" height="2" /><rect x="9" y="9" width="2" height="2" /><rect x="2" y="0" width="2" height="4" rx="1" /><rect x="10" y="0" width="2" height="4" rx="1" /></g>
<g id="gl-path-clock"><path d="M7,14 C3.134,14 0,10.865 0,7 C0,3.134 3.134,0 7,0 C10.865,0 14,3.134 14,7 C14,10.865 10.865,14 7,14 Z M7,12 C9.761,12 12,9.761 12,7 C12,4.238 9.761,2 7,2 C4.238,2 2,4.238 2,7 C2,9.761 4.238,12 7,12 Z" /><rect x="5.5" y="3" width="2" height="5.5" rx="1" /><rect x="5.5" y="6.5" width="5.5" height="2" rx="1" /></g>
<g id="gl-path-folder"><path d="M13.53,4.57 C13.53,4.57 12.96,4.57 12.76,4.57 C12.68,4.57 12.69,4.44 12.69,4.44 L12.69,4.05 C12.69,3.55 12.28,3.14 11.77,3.14 L5.50,3.14 C5.46,3.14 5.41,3.05 5.31,2.87 C5.30,2.85 5.29,2.82 5.27,2.79 C4.95,2.19 4.54,2.06 4.25,2.06 L2.61,2.06 C2.20,2.06 1.95,2.30 1.66,2.77 C1.64,2.80 1.63,2.83 1.61,2.87 C1.51,3.02 1.44,3.14 1.39,3.14 L0.91,3.14 C0.41,3.14 0,3.55 0,4.05 L0,11.68 C0,12.13 0.32,12.50 0.74,12.58 C0.80,12.60 0.85,12.61 0.91,12.61 L12.10,12.61 C12.40,12.61 12.70,12.36 12.75,12.07 L13.99,5.11 C14.04,4.81 13.84,4.57 13.53,4.57 Z M0.91,3.87 L1.39,3.87 C1.87,3.87 2.09,3.49 2.24,3.24 C2.26,3.21 2.27,3.18 2.29,3.16 C2.44,2.92 2.55,2.79 2.69,2.79 L4.25,2.79 C4.29,2.79 4.44,2.79 4.62,3.14 C4.64,3.16 4.65,3.18 4.66,3.21 C4.80,3.47 5.00,3.87 5.50,3.87 L11.77,3.87 C11.87,3.87 11.96,3.95 11.96,4.05 L11.96,4.42 C11.96,4.42 11.97,4.57 11.88,4.57 C9.50,4.57 2.34,4.57 2.34,4.57 C2.04,4.57 1.75,4.81 1.70,5.11 L0.78,10.28 C0.78,10.28 0.73,10.45 0.73,10.13 C0.73,8.61 0.73,4.05 0.73,4.05 C0.73,3.95 0.81,3.87 0.91,3.87 Z" /></g>
<g id="gl-path-tag"><path d="M12.684,0 L8.739,0 C8.016,0 7.006,0.418 6.494,0.929 L0.383,7.041 C-0.127,7.552 -0.127,8.389 0.383,8.900 L5.099,13.616 C5.610,14.127 6.447,14.127 6.958,13.616 L13.070,7.505 C13.581,6.993 14.000,5.983 14.000,5.260 L14.000,1.315 C14.000,0.591 13.408,0 12.684,0 Z M10.937,4.375 C10.212,4.375 9.625,3.787 9.625,3.062 C9.625,2.337 10.212,1.750 10.937,1.750 C11.662,1.750 12.250,2.337 12.250,3.062 C12.250,3.787 11.662,4.375 10.937,4.375 Z" /></g>
<g id="gl-path-comment"><path d="M7,0.935c-3.866,0-7,2.463-7,5.5c0,1.438,0.703,2.749,1.854,3.729c-0.044,0.955-0.242,2.239-0.942,2.901c1.337,0,2.706-0.88,3.518-1.514c0.796,0.248,1.663,0.384,2.57,0.384c3.866,0,7-2.463,7-5.5S10.866,0.935,7,0.935z"/></g>
</defs></svg>
