<svg xmlns="http://www.w3.org/2000/svg" version="1.1" viewBox="0 0 28.261 28.261" class="pin-icon"><g><path d="M9.989 18.103c-0.6-0.602-1.156-1.211-1.656-1.811c-0.115-0.143-0.295-0.221-0.471-0.211c-0.186 0.01-0.354 0.104-0.449 0.256L0.095 27.362c-0.15 0.23-0.119 0.5 0.1 0.73c0.111 0.1 0.3 0.2 0.4 0.164c0.113 0 0.227-0.027 0.322-0.094l11.002-7.369c0.146-0.098 0.244-0.268 0.254-0.447c0.012-0.186-0.07-0.361-0.211-0.479C11.261 19.3 10.6 18.7 10 18.103z" class="pin-holder"/><path d="M27.921 6.642c-0.467-1.227-1.377-2.553-2.562-3.74c-1.788-1.788-3.838-2.897-5.348-2.897c-0.6 0-1.105 0.184-1.455 0.531c-0.402 0.404-0.58 1.002-0.523 1.678c-0.018 0.391-6.266 5.369-6.855 5.346C9.612 7.1 8.4 7.2 7.6 7.995c-1.678 1.676-0.24 5.7 3.3 9.244c2.455 2.5 5.3 4 7.3 3.977c0.799 0 1.469-0.242 1.928-0.701c0.621-0.623 0.836-1.576 0.625-2.775c0.004-0.029 0.006-0.057 0.006-0.084c0-0.064-0.01-0.123-0.035-0.174c-0.035-0.424 4.857-7.234 5.297-7.25c0.084 0 0.2 0 0.2 0.012c0.611 0 1.102-0.182 1.459-0.539C28.364 9.1 28.4 8 27.9 6.642z" class="pin-pin"/></g></svg>
